# xmcd
#
# Track frame offsets: 
#        150
#        116154
#        161040
#        177244
#        211371
#        245271
#        298539
#        327677
#
# Disc length: 4757 seconds
#
# Revision: 0
# Processed by: cddbd v1.5.2PL0 Copyright (c) Steve Scherf et al.
# Submitted via: ExactAudioCopy v1.0b1
#
DISCID=79129308
DTITLE=Richter - Schubert: Piano Works
DYEAR=2012
DGENRE=Classical
TTITLE0=Piano Sonata No. 21 in B flat major, D960-I Molto Moderato
TTITLE1=D960-II Andante Sostenuto
TTITLE2=D960-III Scherzo. Allegro Vivace - Trio
TTITLE3=D960-IV Allegro Ma Non Troppo 
TTITLE4=Impromptu in A flat major, D899 No. 4
TTITLE5=Piano Sonata No. 13 in A major, D664-Allegro moderato
TTITLE6=D664-Andante
TTITLE7=D664-Allegro
EXTD=
EXTT0=
EXTT1=
EXTT2=
EXTT3=
EXTT4=
EXTT5=
EXTT6=
EXTT7=
PLAYORDER=
